<?xml version="1.0" encoding="UTF-8" standalone="no"?>
<!-- Created with Inkscape (http://www.inkscape.org/) -->

<svg
   xmlns:dc="http://purl.org/dc/elements/1.1/"
   xmlns:cc="http://creativecommons.org/ns#"
   xmlns:rdf="http://www.w3.org/1999/02/22-rdf-syntax-ns#"
   xmlns:svg="http://www.w3.org/2000/svg"
   xmlns="http://www.w3.org/2000/svg"
   xmlns:sodipodi="http://sodipodi.sourceforge.net/DTD/sodipodi-0.dtd"
   xmlns:inkscape="http://www.inkscape.org/namespaces/inkscape"
   width="324"
   height="428"
   id="svg3833"
   version="1.1"
   inkscape:version="0.91 r13725"
   sodipodi:docname="die00.svg">
  <defs
     id="defs3835" />
  <sodipodi:namedview
     id="base"
     pagecolor="#ffffff"
     bordercolor="#666666"
     borderopacity="1.0"
     inkscape:pageopacity="0.0"
     inkscape:pageshadow="2"
     inkscape:zoom="1.4"
     inkscape:cx="59.415221"
     inkscape:cy="214"
     inkscape:document-units="px"
     inkscape:current-layer="layer1"
     showgrid="false"
     fit-margin-top="0"
     fit-margin-left="0"
     fit-margin-right="0"
     fit-margin-bottom="0"
     inkscape:window-width="1440"
     inkscape:window-height="808"
     inkscape:window-x="0"
     inkscape:window-y="1"
     inkscape:window-maximized="1" />
  <metadata
     id="metadata3838">
    <rdf:RDF>
      <cc:Work
         rdf:about="">
        <dc:format>image/svg+xml</dc:format>
        <dc:type
           rdf:resource="http://purl.org/dc/dcmitype/StillImage" />
        <dc:title />
      </cc:Work>
    </rdf:RDF>
  </metadata>
  <g
     inkscape:label="Layer 1"
     inkscape:groupmode="layer"
     id="layer1"
     transform="translate(-33.4375,-23.0625)">
    <path
       style="fill:#000000"
       d="m 176.61726,361.63944 c -12.69877,-9.9504 -6.42547,-25.85348 -3.50296,-38.65884 1.30615,-15.73529 1.76857,-31.6671 0.78046,-47.41869 -28.13824,19.70895 -52.22982,46.56757 -85.268034,58.29362 -3.332385,1.36501 -21.201204,3.34798 -14.355377,-0.79344 24.648599,-17.24978 50.886791,-32.55464 73.136291,-52.94554 5.9426,-7.62857 19.739,-16.0007 17.9799,-25.26838 -10.3488,-0.99522 -20.0746,4.1572 -26.61328,9.24717 -9.35469,-6.51048 -9.86256,-21.66977 -15.77441,-31.54928 -4.35169,-12.20471 -11.87005,-22.81122 -18.20693,-33.88728 -3.11657,-7.90333 6.45543,-4.35867 10.88293,-5.00842 11.12409,6.24649 23.68733,2.16377 35.50537,-0.69531 8.01765,-2.5196 18.38302,-3.35939 24.88498,-7.80143 -0.75046,-6.01153 4.44447,-19.66389 -6.01347,-16.26115 -13.0403,2.85429 -27.09131,3.81247 -39.33011,-2.43697 3.45219,-2.46815 14.69499,-3.73669 20.81019,-5.36864 7.99649,-1.63288 16.00444,-3.20902 24.00648,-4.81445 0.71266,-12.55012 -1.39734,-24.94455 -5.94908,-36.67572 -2.80651,-6.26534 -4.70758,-13.96635 4.2642,-8.65775 13.01397,2.73578 26.63059,11.52509 17.63244,26.14921 -6.47505,11.71948 4.20432,15.03795 13.35337,10.4718 10.77315,-3.07502 25.44943,-5.78485 33.85472,2.80361 -14.25923,8.14074 -30.92149,10.18756 -46.1548,15.75665 -5.4113,1.72162 -7.61157,16.12267 -2.86088,17.44126 17.36809,-0.19866 33.99104,-7.8095 51.36881,-7.05317 9.1089,3.39952 30.7918,9.2649 20.21322,22.42238 -12.34566,17.57355 -19.50671,38.03495 -27.95831,57.63079 -9.76055,2.2975 -12.07679,-12.23112 -22.89924,-7.25577 -5.81164,1.2728 -19.96918,1.47538 -21.3027,5.43564 33.73937,30.5473 76.07053,51.29258 120.93483,59.04398 11.58221,0.62061 10.42775,8.62392 -0.20864,8.80105 -16.26602,4.16445 -33.97245,7.38158 -50.45193,2.9739 -24.78609,-13.26925 -43.96356,-34.47207 -64.11976,-53.67733 -2.91043,-2.2401 -7.67207,-9.99299 -7.21225,-2.1967 -1.49225,26.83364 2.77643,53.86418 0.0385,80.61321 -2.70113,4.07175 -4.37247,21.13599 -11.46449,11.33999 z M 155.73574,246.70661 c 7.6798,-4.88121 23.26517,6.68077 19.64141,-6.92286 -1.34043,-3.45949 2.457,-12.83277 -3.17489,-11.383 -8.31141,-0.0574 -25.22892,4.28507 -26.47502,-5.73486 9.74896,-3.35213 19.97845,-5.05788 29.81205,-8.16029 -1.04334,-5.5525 3.37033,-18.39421 -5.54036,-15.96137 -13.36257,2.27988 -27.41611,3.06205 -40.05137,7.9989 2.91753,13.63753 8.45755,27.01047 12.8921,40.37246 1.18063,3.96324 9.69925,-0.92618 12.89608,-0.20898 z m 59.65153,-7.10355 c 15.85208,2.56496 12.30784,-18.18901 16.32145,-28.13359 3.97126,-11.46324 -0.20895,-24.26534 -14.38651,-19.908 -9.8072,-0.48288 -19.44673,1.39189 -28.78292,4.2191 -2.8e-4,4.7603 -5.5e-4,9.5206 -8.1e-4,14.2809 9.17981,0.60194 19.04175,-1.64717 27.60884,2.06085 7.56081,7.26137 -13.62617,8.07278 -18.44316,11.04427 -15.0723,-2.58124 -13.28448,22.85574 1.58041,17.26732 5.37726,0.004 10.75123,-0.32076 16.1027,-0.83085 z"
       id="path2995"
       inkscape:connector-curvature="0" />
  </g>
</svg>
