<?xml version="1.0" encoding="UTF-8" standalone="no"?>
<!-- Created with Inkscape (http://www.inkscape.org/) -->

<svg
   xmlns:dc="http://purl.org/dc/elements/1.1/"
   xmlns:cc="http://creativecommons.org/ns#"
   xmlns:rdf="http://www.w3.org/1999/02/22-rdf-syntax-ns#"
   xmlns:svg="http://www.w3.org/2000/svg"
   xmlns="http://www.w3.org/2000/svg"
   xmlns:sodipodi="http://sodipodi.sourceforge.net/DTD/sodipodi-0.dtd"
   xmlns:inkscape="http://www.inkscape.org/namespaces/inkscape"
   width="324"
   height="428"
   id="svg3833"
   version="1.1"
   inkscape:version="0.91 r13725"
   sodipodi:docname="die03.svg">
  <defs
     id="defs3835" />
  <sodipodi:namedview
     id="base"
     pagecolor="#ffffff"
     bordercolor="#666666"
     borderopacity="1.0"
     inkscape:pageopacity="0.0"
     inkscape:pageshadow="2"
     inkscape:zoom="1.4"
     inkscape:cx="75.358413"
     inkscape:cy="215.33416"
     inkscape:document-units="px"
     inkscape:current-layer="layer1"
     showgrid="false"
     fit-margin-top="0"
     fit-margin-left="0"
     fit-margin-right="0"
     fit-margin-bottom="0"
     inkscape:window-width="1440"
     inkscape:window-height="808"
     inkscape:window-x="0"
     inkscape:window-y="1"
     inkscape:window-maximized="1" />
  <metadata
     id="metadata3838">
    <rdf:RDF>
      <cc:Work
         rdf:about="">
        <dc:format>image/svg+xml</dc:format>
        <dc:type
           rdf:resource="http://purl.org/dc/dcmitype/StillImage" />
        <dc:title />
      </cc:Work>
    </rdf:RDF>
  </metadata>
  <g
     inkscape:label="Layer 1"
     inkscape:groupmode="layer"
     id="layer1"
     transform="translate(-33.4375,-23.0625)">
    <path
       style="fill:#000000"
       d="m 156.91061,344.13368 c -10.52811,-11.18408 -3.5767,-27.48237 -2.97518,-40.82367 1.04445,-6.68848 0.92147,-19.25602 -7.61787,-9.42003 -15.13394,10.26215 -28.73978,23.01554 -44.96806,31.51563 -9.494717,0.49654 -16.758007,-9.4777 -21.151664,-16.39958 21.730674,-5.97194 43.254554,-13.16274 63.324654,-23.6004 4.55466,-2.23564 9.10932,-4.47128 13.66398,-6.70692 0,-17.02853 0,-34.05707 0,-51.0856 -15.25264,0.8468 -28.88266,10.351 -44.22568,10.768 -6.59751,-0.42005 -18.510816,-9.40043 -5.78264,-11.22363 15.59759,-5.43032 31.25957,-11.7345 48.00672,-12.00246 1.35235,-4.29124 0.59013,-10.91784 0.63951,-15.90662 -1.49319,-16.45846 -6.8364,-32.20259 -10.63791,-48.20321 11.4283,-2.52534 22.78253,6.86274 26.86062,16.80378 0.12058,11.82085 -3.56939,23.35588 -2.94916,35.25543 -0.87992,43.66379 -0.96954,87.33911 -1.43118,131.00871 -2.64241,4.62951 -4.22518,18.18279 -10.75614,10.02057 l 0,0 z m 82.48449,-7.98625 c -14.45188,-2.80824 -27.23706,-12.68174 -32.47811,-26.56509 -0.68743,-24.73496 -0.3903,-49.70198 -0.69905,-74.5262 -0.49949,-29.93986 0.35452,-59.94338 -1.4666,-89.83564 -1.52504,-6.42107 -9.83267,-24.35987 3.50705,-15.7753 6.83479,3.06435 13.49385,6.5711 19.54782,11.00236 -5.47316,31.67949 -12.1799,63.76017 -8.08983,96.02879 13.92149,-8.19901 26.29986,-19.77686 35.70102,-33.01351 1.74898,-13.25576 16.08002,-11.47775 23.02923,-2.75313 4.92685,3.90534 9.58777,10.29965 0.11167,11.92561 -20.00803,11.15243 -39.9203,22.47534 -59.87183,33.72827 0,19.35549 0,38.71099 0,58.06648 4.90499,7.78338 13.54196,12.20332 22.70754,12.45987 14.93694,1.14094 33.27193,2.53616 43.54347,-10.76614 7.9328,-10.56613 12.36792,-23.17516 16.84818,-35.48022 1.8266,16.513 5.46902,32.73694 9.02154,48.9448 -10.05625,9.91261 -24.42073,14.69074 -38.11164,16.80176 -11.03028,1.09778 -22.33178,1.6675 -33.30046,-0.24271 z"
       id="path3005"
       inkscape:connector-curvature="0" />
  </g>
</svg>
