<?xml version="1.0" encoding="UTF-8" standalone="no"?>
<!-- Created with Inkscape (http://www.inkscape.org/) -->

<svg
   xmlns:dc="http://purl.org/dc/elements/1.1/"
   xmlns:cc="http://creativecommons.org/ns#"
   xmlns:rdf="http://www.w3.org/1999/02/22-rdf-syntax-ns#"
   xmlns:svg="http://www.w3.org/2000/svg"
   xmlns="http://www.w3.org/2000/svg"
   xmlns:sodipodi="http://sodipodi.sourceforge.net/DTD/sodipodi-0.dtd"
   xmlns:inkscape="http://www.inkscape.org/namespaces/inkscape"
   width="324"
   height="428"
   id="svg3833"
   version="1.1"
   inkscape:version="0.91 r13725"
   sodipodi:docname="die02.svg">
  <defs
     id="defs3835" />
  <sodipodi:namedview
     id="base"
     pagecolor="#ffffff"
     bordercolor="#666666"
     borderopacity="1.0"
     inkscape:pageopacity="0.0"
     inkscape:pageshadow="2"
     inkscape:zoom="1.4"
     inkscape:cx="137.14413"
     inkscape:cy="215.33416"
     inkscape:document-units="px"
     inkscape:current-layer="layer1"
     showgrid="false"
     fit-margin-top="0"
     fit-margin-left="0"
     fit-margin-right="0"
     fit-margin-bottom="0"
     inkscape:window-width="1440"
     inkscape:window-height="808"
     inkscape:window-x="0"
     inkscape:window-y="1"
     inkscape:window-maximized="1" />
  <metadata
     id="metadata3838">
    <rdf:RDF>
      <cc:Work
         rdf:about="">
        <dc:format>image/svg+xml</dc:format>
        <dc:type
           rdf:resource="http://purl.org/dc/dcmitype/StillImage" />
        <dc:title />
      </cc:Work>
    </rdf:RDF>
  </metadata>
  <g
     inkscape:label="Layer 1"
     inkscape:groupmode="layer"
     id="layer1"
     transform="translate(-33.4375,-23.0625)">
    <path
       style="fill:#000000"
       d="m 250.52594,344.85432 c -6.79438,-12.11557 -7.34792,-27.4942 -16.88867,-38.04761 -10.61834,-7.41958 -24.38913,-2.94272 -36.34524,-2.95462 -24.56038,1.99714 -49.12781,3.97242 -73.67043,6.14739 -4.62765,3.08747 -8.82545,26.29112 -12.57904,11.48506 -8.47939,-33.50337 -8.01274,-70.0042 -25.836668,-100.59526 -4.326844,-8.21368 13.58522,-1.23812 18.900238,-2.77129 16.19384,0.77712 32.16206,-2.57615 48.1201,-4.79376 -0.2936,-16.63848 1.90474,-34.5277 -7.281,-49.34285 -1.88662,-2.80241 -6.81784,-1.28649 -9.91378,-2.37366 -9.19863,-0.81825 -19.067,-3.05216 -24.91323,-10.81434 42.05137,-1.71634 82.86093,-12.66528 123.78672,-21.46166 7.65742,-0.96301 25.73127,-2.24054 25.31961,7.977 -9.0964,10.82839 -24.55151,9.91421 -37.16653,13.03859 -6.23954,1.98138 -24.14028,0.71582 -13.15006,9.89396 9.97638,7.16423 8.02272,18.34435 3.90799,28.21581 -2.39614,6.54587 -6.22935,16.65482 4.95038,12.7277 19.46935,-1.21315 38.53112,-6.12933 57.9712,-7.24861 11.58743,3.59616 23.0619,9.94148 30.87734,19.34851 0.2974,9.49357 -9.8512,17.29389 -11.35695,27.26967 -9.47107,27.27159 -8.78935,57.37366 -21.30839,83.64763 -5.17493,8.17225 -10.94488,18.44417 -20.64421,21.31991 l -1.34956,-0.19503 -1.42982,-0.47254 0,0 z m 8.73271,-39.60429 c 8.40505,-18.89122 11.34191,-39.79021 14.03738,-60.15078 0.60024,-10.58911 2.28892,-22.35644 -3.10756,-31.99349 -9.52814,-5.95652 -21.94629,-2.43972 -32.6887,-3.1619 -10.09146,0.26938 -20.18234,0.56065 -30.27354,0.83974 0,10.45819 0,20.91637 0,31.37456 6.45009,3.9147 13.80656,4.93272 21.18126,3.26979 9.03493,-3.29556 25.70625,9.95122 10.45783,13.91491 -10.81029,0.85703 -22.07429,1.49559 -32.73703,-0.80889 -9.78343,-3.69675 -14.36718,-14.29027 -13.98005,-24.21869 -1.08607,-8.13515 4.23276,-24.98531 -9.42201,-18.33046 -9.0476,1.04202 -20.77486,-0.20278 -18.41913,12.83721 -2.77979,19.86446 -10.71782,42.04379 -29.93658,51.38526 0.0874,-8.28201 7.8025,-18.98907 10.36327,-28.2991 3.61606,-9.76641 7.21916,-19.93035 6.49244,-30.49879 -12.65283,2.21933 -25.39556,3.96792 -37.9753,6.57537 1.20522,21.66898 5.09878,43.29477 4.98476,65.10077 -0.71685,13.01766 18.06776,2.15667 25.90253,3.9536 28.11887,-2.79858 56.15977,-6.84438 84.39532,-8.1977 12.24854,-0.19989 15.99821,13.18411 24.18949,19.37711 2.68267,1.00522 5.35718,-0.50525 6.53562,-2.96852 z m -70.7476,-99.02224 c 4.18032,-0.26866 7.68484,-1.18408 6.94788,-6.15877 0.88838,-14.99378 0.84832,-30.15359 -0.44599,-45.11561 -13.31569,1.13931 -26.45635,3.80972 -39.66954,5.79258 3.96094,3.76911 7.92188,7.53822 11.88283,11.30732 0.30136,12.03036 -0.77215,24.28155 1.05486,36.12729 6.47786,1.29108 13.65828,-1.16641 20.22996,-1.95281 z"
       id="path2995"
       inkscape:connector-curvature="0" />
  </g>
</svg>
