<?xml version="1.0" encoding="UTF-8" standalone="no"?>
<!-- Created with Inkscape (http://www.inkscape.org/) -->

<svg
   xmlns:dc="http://purl.org/dc/elements/1.1/"
   xmlns:cc="http://creativecommons.org/ns#"
   xmlns:rdf="http://www.w3.org/1999/02/22-rdf-syntax-ns#"
   xmlns:svg="http://www.w3.org/2000/svg"
   xmlns="http://www.w3.org/2000/svg"
   xmlns:sodipodi="http://sodipodi.sourceforge.net/DTD/sodipodi-0.dtd"
   xmlns:inkscape="http://www.inkscape.org/namespaces/inkscape"
   width="324"
   height="428"
   id="svg3833"
   version="1.1"
   inkscape:version="0.91 r13725"
   sodipodi:docname="die01.svg">
  <defs
     id="defs3835" />
  <sodipodi:namedview
     id="base"
     pagecolor="#ffffff"
     bordercolor="#666666"
     borderopacity="1.0"
     inkscape:pageopacity="0.0"
     inkscape:pageshadow="2"
     inkscape:zoom="1.4"
     inkscape:cx="-26.607391"
     inkscape:cy="214"
     inkscape:document-units="px"
     inkscape:current-layer="layer1"
     showgrid="false"
     fit-margin-top="0"
     fit-margin-left="0"
     fit-margin-right="0"
     fit-margin-bottom="0"
     inkscape:window-width="1440"
     inkscape:window-height="808"
     inkscape:window-x="0"
     inkscape:window-y="1"
     inkscape:window-maximized="1" />
  <metadata
     id="metadata3838">
    <rdf:RDF>
      <cc:Work
         rdf:about="">
        <dc:format>image/svg+xml</dc:format>
        <dc:type
           rdf:resource="http://purl.org/dc/dcmitype/StillImage" />
        <dc:title />
      </cc:Work>
    </rdf:RDF>
  </metadata>
  <g
     inkscape:label="Layer 1"
     inkscape:groupmode="layer"
     id="layer1"
     transform="translate(-33.4375,-23.0625)">
    <path
       style="fill:#000000"
       d="m 258.06114,360.3713 c -8.38222,-10.84325 -16.48292,-21.96519 -23.83211,-33.53157 10.31971,1.16355 24.61894,5.38455 30.81534,-6.12685 9.45061,-17.05283 6.92982,-37.35778 7.75535,-56.13319 -0.59235,-13.17989 1.74238,-27.04214 -2.74502,-39.65714 -6.40493,-10.03729 -19.37134,-7.65349 -29.45398,-7.65961 -8.02862,1.27586 -23.30374,-0.58057 -26.29971,5.74216 4.02906,3.48067 10.28723,6.07057 3.53971,10.35816 -5.37428,7.3319 -16.50498,16.43998 -17.78776,22.8786 9.43371,1.5044 22.32978,-1.5981 29.67312,1.94538 -8.93395,7.08706 -21.50748,5.77988 -32.16135,8.39044 -9.0979,-0.31249 -4.88826,10.59504 -5.78393,16.43627 -0.5703,4.70929 6.67864,0.0919 9.6519,0.57444 11.8748,-1.80185 26.37583,-4.38717 36.30232,4.18285 0.93124,11.06336 -17.17118,5.96498 -24.78396,7.61495 -6.46799,0.18339 -12.93597,0.36678 -19.40395,0.55017 -6.12799,13.17426 -3.20667,28.87926 -9.81946,41.81942 -8.51496,12.00361 -5.16672,-10.69854 -6.47119,-16.39569 -0.22066,-9.3317 0.78387,-27.99819 -13.53238,-19.65043 -9.92868,3.50377 -25.17211,6.08556 -30.86057,-5.25724 10.70555,-3.42767 22.8486,-4.28644 34.09149,-6.84131 5.98896,-0.25271 10.6952,-2.0041 8.8258,-8.60175 0.28146,-5.50092 1.08774,-14.0607 -7.26499,-8.76679 -6.65163,2.10739 -23.80786,1.46436 -24.39908,-3.95357 12.96613,-3.48997 27.04792,-3.0485 39.36575,-8.61558 8.46163,-8.34086 16.06048,-19.02693 18.29832,-30.88934 -2.5992,-10.80475 -20.84741,-1.03643 -29.66231,-2.37121 -19.26938,2.47217 -38.60131,4.65865 -57.74471,7.96252 -1.23337,31.29702 0.14531,62.67798 0.27898,94.00925 -2.613,4.09437 -5.11886,16.69717 -11.01025,9.58635 -10.093842,-8.78611 -5.417347,-22.49508 -4.233758,-33.75981 3.645938,-24.45633 3.816508,-50.3026 -6.523813,-73.26961 -8.2939,-12.67494 9.232131,-12.57482 15.872151,-6.05569 11.42918,1.14954 23.15965,-2.731 34.68144,-3.79426 9.89918,-2.65048 25.21395,0.16716 27.80436,-12.80642 3.66886,-6.8384 4.18143,-14.58079 4.03795,-22.1639 -11.82005,-0.42145 -24.80186,2.91955 -35.43674,-3.53583 -7.70473,-6.74832 12.68425,-5.45056 17.29422,-7.94181 10.20945,-2.44664 25.54694,-1.75667 24.16612,-16.40228 2.63828,-15.40631 3.87756,-31.57277 -1.16932,-46.62008 11.14527,-1.07764 22.41599,3.65459 29.33285,12.5 -4.41596,12.86321 -9.51779,25.52443 -13.09478,38.64949 11.34996,0.60089 22.4261,-4.49523 33.53791,-5.90561 4.67227,1.91397 12.54997,1.76464 14.58973,6.10372 -9.29034,12.12281 -25.98124,11.99819 -39.497,15.82751 -14.10056,-1.13423 -15.50464,13.11047 -20.70799,22.76005 -3.15155,6.094 -8.81325,17.09921 3.15285,13.95182 22.40899,-1.17841 44.32228,-6.49224 66.49157,-9.58726 10.99277,-3.56314 23.12906,-4.56061 33.12584,2.3131 12.69967,3.64607 15.99261,16.42482 8.44674,26.8622 -6.90059,15.48715 -5.07208,32.83375 -6.97116,49.31325 -2.43408,23.77264 -0.56808,50.01806 -14.88876,70.54363 -3.24219,4.17027 -10.55813,10.99268 -15.59178,5.4181 z M 160.38285,252.57675 c -4.11065,-3.85675 -12.86427,-17.21541 -6.6416,-19.95545 10.49686,-2.2602 20.32066,6.28725 17.95843,17.29732 0.89107,7.59807 -7.68813,6.4493 -11.31683,2.65813 z"
       id="path2995"
       inkscape:connector-curvature="0" />
  </g>
</svg>
